<svg width="94" height="109" viewBox="0 0 94 109" fill="none" xmlns="http://www.w3.org/2000/svg">
<path d="M15.7734 5.08377C13.6563 5.41112 11.6473 6.03909 9.92924 7.34848C6.5607 9.9205 6.66893 13.9556 10.1592 16.3539C10.7139 16.7347 11.3091 17.0821 11.9247 17.3626C13.1557 17.9238 14.4139 18.4315 15.672 18.9459C16.017 19.0862 16.416 19.1196 16.4499 19.6006C12.8919 21.3509 11.7488 21.6983 10.2877 26.1075C9.11078 26.1075 8.05558 26.1075 7.00037 26.1075C6.01957 26.1075 5.03201 26.0407 4.05121 26.0808C3.04336 26.1275 2.52928 26.6019 2.33989 27.5505C2.26548 27.9112 2.26548 28.292 2.23166 28.6661C1.88669 32.3805 1.54849 36.0949 1.20352 39.8093C1.00059 41.9605 1.06147 42.0874 3.10424 43.036C3.57096 43.2498 4.0918 43.3701 4.59911 43.5037C5.00496 43.6106 5.4311 43.6774 5.98575 43.7909C5.81665 45.107 5.64755 46.2761 5.52579 47.4519C4.91702 53.4644 4.32178 59.4769 3.71977 65.4894C2.81338 74.6217 1.90022 83.7473 0.993827 92.8797C0.824724 94.5899 0.6218 96.2934 0.50681 98.0037C0.412112 99.4467 0.784139 99.8943 2.16402 100.208C2.52928 100.295 2.90131 100.362 3.2801 100.409C9.5031 101.17 15.7261 101.932 21.9559 102.68C29.9037 103.635 37.8651 104.564 45.8129 105.533C53.7608 106.501 61.7086 107.503 69.6565 108.485C71.1581 108.673 72.653 108.873 74.1614 108.993C75.7172 109.113 76.1974 108.753 76.5424 107.243C76.9212 105.573 77.2256 103.883 77.5502 102.199C80.9323 84.9231 84.3076 67.6472 87.6964 50.3713C87.9264 49.2089 88.2037 48.0598 88.4878 46.7972C89.7257 46.7972 90.8485 46.8373 91.9713 46.7838C92.8304 46.7437 93.358 46.2093 93.4527 45.3675C93.5136 44.8531 93.4933 44.3254 93.4933 43.8043C93.4797 41.7133 93.4594 39.6289 93.4392 37.5379C93.4121 35.153 93.4121 32.7613 93.3377 30.3764C93.2768 28.439 92.8236 28.0048 90.9161 27.9446C89.3266 27.8912 87.7438 27.8912 86.1542 27.8511C85.8025 27.8444 85.3831 27.938 85.0855 27.4169C85.3628 27.0561 85.6604 26.6486 85.9648 26.2545C86.7089 25.3058 87.365 24.3037 87.6964 23.1346C89.1034 18.1643 86.8103 16.0933 83.3471 15.0111C82.9886 14.8975 82.603 14.8574 82.2445 14.7505C81.9672 14.6637 81.7034 14.5301 81.2773 14.343C82.231 13.7618 83.0562 13.2541 83.8815 12.7464C85.5928 11.6908 86.8847 10.2612 87.7776 8.48418C88.2917 7.46873 88.5825 6.39984 88.5758 5.25747C88.569 3.0796 87.5408 1.58316 85.5319 0.714687C84.1047 0.0800335 82.603 -0.033536 81.0811 -0.000133247C78.7204 0.0599918 76.4206 0.500909 74.202 1.27585C68.2293 3.36687 62.7977 6.39984 57.9613 10.4416C57.6231 10.7288 57.2917 11.0295 57.0211 11.2633C56.7505 11.2633 56.5814 11.3101 56.4529 11.2566C54.3831 10.3881 52.7868 11.1564 51.4069 12.6662C50.974 13.1338 50.5478 13.6148 50.1082 14.1025C47.7475 11.3769 47.3078 11.2499 44.1354 12.2988C43.5334 11.9848 42.857 11.6641 42.2009 11.2967C38.3724 9.14555 34.3342 7.48209 30.1134 6.26623C25.4259 4.91676 20.6504 4.32219 15.7734 5.07709V5.08377ZM14.0959 24.8515C14.8265 23.6156 16.0643 23.0478 17.3698 22.6336C19.2502 22.039 21.205 21.7384 23.1666 21.7852C28.7403 21.9255 34.3275 21.9188 39.8808 22.5868C40.3881 22.647 40.8819 22.814 41.5177 22.9609C41.6327 24.3037 41.7139 25.3993 41.5651 26.4883C41.2539 26.6019 41.051 26.7488 40.8481 26.7488C31.8788 26.5818 22.9096 26.5618 13.7713 26.1142C13.8863 25.6265 13.893 25.1856 14.0892 24.8515H14.0959ZM21.6244 40.7646C18.7564 40.631 15.8884 40.5175 13.0272 40.3772C12.8311 40.3705 12.6417 40.2235 12.317 40.0899C12.5267 39.796 12.6484 39.5287 12.8513 39.3617C16.3146 36.3688 19.7981 33.3893 23.2546 30.3897C23.9716 29.7684 24.7494 29.4812 25.7167 29.5146C29.3423 29.6215 32.9679 29.6749 36.5934 29.7551C36.864 29.7551 37.1413 29.8152 37.7366 29.882C37.2766 30.363 37.0805 30.6503 36.8099 30.8373C32.4606 33.9237 28.0977 36.9968 23.7348 40.0765C23.1058 40.5175 22.4293 40.8047 21.6312 40.7646H21.6244ZM23.1193 44.5792C23.1193 44.5792 7.84589 59.704 7.49415 60.0514C7.81207 54.3997 8.50877 49.1888 9.27988 43.8711C9.60456 43.811 9.9563 43.6707 10.3013 43.684C14.4409 43.831 18.5873 43.998 22.727 44.1717C22.8487 44.1717 22.9637 44.3053 23.0787 44.3788C23.0922 44.4456 23.1058 44.5191 23.1193 44.5859V44.5792ZM28.9026 40.3504C32.5958 37.6582 36.3026 34.9726 40.0093 32.3004C40.1717 32.1801 40.4016 32.1534 40.6722 32.0532C40.7398 32.307 40.8548 32.5075 40.8345 32.6878C40.6046 34.7521 40.3813 36.8231 40.104 38.8807C39.9958 39.6757 39.7658 40.4573 39.6035 41.1989C37.6216 41.5396 32.075 41.3592 28.6388 40.8715C28.7335 40.6778 28.7673 40.4506 28.8959 40.3504H28.9026ZM4.34207 40.2703C4.49765 36.5759 4.89673 32.9818 5.29581 29.3743C6.91244 28.9133 8.42084 29.254 9.90218 29.2206C11.4106 29.1872 12.919 29.254 14.4274 29.2808C15.9223 29.3008 17.4171 29.3275 18.8511 29.3476C19.1217 29.9622 18.7158 30.1492 18.4588 30.383C14.9753 33.4561 11.4512 36.4958 8.00146 39.6022C6.90568 40.5909 5.76254 40.5909 4.34883 40.2703H4.34207ZM6.85156 65.6764C7.16948 65.3959 7.59562 65.1553 7.81883 64.7946C9.334 62.3562 11.512 60.479 13.4466 58.4013C17.7486 53.7984 22.3414 49.4828 27.1034 45.3408C27.6851 44.8331 28.2262 44.3922 29.0717 44.4323C32.2373 44.5859 35.4097 44.6995 38.5753 44.8398C38.7106 44.8398 38.8459 44.9467 39.1503 45.0736C39.1909 46.6435 38.758 48.2068 38.3589 49.7633C38.2439 50.2109 37.7298 50.5784 37.3578 50.9458C35.545 52.7362 33.7119 54.5132 31.8924 56.2969C23.7348 64.2602 15.5705 72.2301 7.41299 80.1866C6.89215 80.6943 6.33072 81.1687 5.79636 81.6563C5.64755 81.5962 5.49874 81.5294 5.34993 81.4693C5.70166 76.2117 6.35102 70.9741 6.86509 65.6631L6.85156 65.6764ZM3.71977 97.0751C4.01739 93.9753 4.29472 90.9356 4.6194 87.9027C4.66675 87.4885 4.89673 87.0609 5.147 86.7068C5.39727 86.3461 5.7693 86.0588 6.09398 85.7448C15.9223 76.1516 25.7505 66.5649 35.5856 56.9784C35.9982 56.5708 36.4446 56.2034 37.1481 55.5688C37.1143 58.1408 36.4446 60.2451 36.1132 62.3963C35.7682 64.6009 35.3218 66.7988 34.9092 68.9967C34.4966 71.1879 34.0772 73.3791 33.6849 75.4167C28.5779 79.425 23.6131 83.3198 18.655 87.2146C14.6371 90.3678 10.6124 93.5143 6.60129 96.6876C5.78283 97.3356 4.97113 97.7565 3.72654 97.0751H3.71977ZM29.092 99.921C29.065 100.041 28.9161 100.141 28.7065 100.389C22.6864 99.6538 16.5648 98.9122 10.0442 98.1172C10.511 97.5961 10.6801 97.3623 10.8965 97.182C13.7577 94.7903 19.1623 90.5281 23.8566 86.9072C24.4112 86.4797 24.9524 86.0655 25.48 85.658C26.0076 85.2505 26.5216 84.863 27.0154 84.4889C27.7527 83.9277 28.4494 83.4066 29.0785 82.9323C30.1269 82.144 30.9995 81.5027 31.6083 81.0751C31.73 80.9883 31.845 80.9081 31.9465 80.8413C32.1494 80.701 32.305 80.6008 32.4132 80.534C32.4741 80.5607 32.5485 80.5674 32.5823 80.6142C32.6229 80.6676 32.6567 80.7611 32.6432 80.8279C32.4606 82.0037 32.2982 83.1795 32.0818 84.3486C31.101 89.5394 30.1066 94.7302 29.0988 99.9143L29.092 99.921ZM42.2009 100.449C42.1197 100.876 41.9777 101.297 41.8762 101.685C40.0905 101.878 34.8956 101.297 32.3861 100.642C32.3591 100.442 32.2644 100.222 32.305 100.021C35.6667 81.7632 39.042 63.5053 42.4579 45.0001C45.7926 44.9667 48.8703 45.1604 51.8804 45.4143C52.3471 45.9688 52.1374 46.4832 52.0495 46.9709C49.4115 61.2806 46.7667 75.5837 44.1287 89.8935C43.4793 93.4141 42.8503 96.9348 42.2009 100.455V100.449ZM55.533 45.5947C56.0538 45.5613 56.6355 45.4677 57.2105 45.4878C61.6613 45.6481 66.1121 45.8285 70.5696 46.0089C72.6057 46.089 74.6417 46.1893 76.6777 46.2895C77.1038 46.3095 77.5232 46.3496 78.1049 46.3963C77.8884 46.7371 77.814 46.9442 77.6652 47.0711C75.1151 49.2556 53.3685 65.6831 51.806 66.585C51.8398 64.7478 54.6131 49.1955 55.533 45.6014V45.5947ZM73.6541 105.847C69.2777 105.326 65.111 104.831 60.9375 104.317C60.5858 104.277 60.2544 104.123 59.463 103.889C59.9567 103.635 60.1529 103.542 60.3491 103.428C65.2192 100.616 70.0894 97.8032 74.9596 95.0041C75.1422 94.8972 75.3789 94.8905 75.7713 94.7903C75.1693 98.5247 74.4049 102.119 73.6473 105.847H73.6541ZM76.7453 90.3277C76.1298 90.7219 75.5751 91.1093 75.0002 91.4434C68.6148 95.1377 62.216 98.7987 55.8577 102.54C54.6807 103.228 53.5782 103.502 52.2253 103.268C50.4464 102.961 48.6268 102.854 46.8276 102.633C46.3135 102.573 45.8062 102.413 45.1974 102.279C45.1568 101.918 45.1095 101.765 45.1365 101.631C45.4003 100.315 45.4071 98.8588 46.0294 97.7364C46.6111 96.6943 47.8422 95.9861 48.823 95.1778C58.8474 86.9006 68.8786 78.63 78.9098 70.3662C79.4171 69.952 79.965 69.5912 80.5129 69.1837C80.6347 69.4443 80.7497 69.5779 80.7294 69.6848C79.4104 76.5657 78.0778 83.44 76.7453 90.3344V90.3277ZM84.8014 49.2757C83.9694 53.5178 83.0292 57.7399 82.3189 62.0021C82.0754 63.4719 81.372 64.4071 80.2829 65.2956C75.7983 68.9499 71.3543 72.6509 66.89 76.3252C60.8022 81.3423 54.7213 86.3594 48.6336 91.3765C48.1872 91.744 47.7137 92.0847 47.2537 92.4321C47.1319 92.3519 47.0034 92.2651 46.8817 92.1849C47.3349 89.6262 47.7813 87.0676 48.2548 84.5156C48.9312 80.8547 49.7158 77.2071 50.257 73.5194C50.4734 72.0296 51.1972 71.1345 52.3268 70.2727C60.4708 64.0998 68.581 57.8802 76.7047 51.6807C78.5581 50.2644 80.4115 48.8548 82.2378 47.4118C83.3606 46.5233 83.3403 46.4966 85.1734 46.9308C85.0584 47.7057 84.9637 48.5007 84.8081 49.2823L84.8014 49.2757ZM89.9624 31.0043C90.5373 32.4607 90.233 33.877 90.2938 35.2599C90.3547 36.596 90.3412 37.9388 90.3412 39.2815C90.3412 40.6778 90.4697 42.0807 90.2871 43.4302C88.082 43.7709 70.2247 43.0427 67.6543 42.535C67.7084 41.9137 68.2766 41.7467 68.6622 41.4527C72.3554 38.6269 76.0824 35.8277 79.7689 32.9951C80.5873 32.3672 81.3246 31.6189 82.3122 30.7371C84.8081 30.824 87.365 30.9175 89.9624 31.011V31.0043ZM59.0098 13.6817C59.5577 13.1806 60.1394 12.5994 60.7752 12.0917C64.7931 8.88501 69.2371 6.4132 74.0464 4.55601C76.1703 3.74098 78.3687 3.21322 80.6279 3.05288C81.6628 2.9794 82.7383 3.09965 83.7529 3.3201C85.2275 3.64745 85.6875 4.4892 85.3831 5.99233C85.0855 7.44201 84.24 8.57102 83.1239 9.5063C82.5489 9.98062 81.9131 10.4015 81.257 10.7556C77.2864 12.9134 73.1468 14.6771 68.8516 16.1C66.0647 17.0219 63.2982 17.9906 60.5249 18.9393C60.1055 19.0795 59.6862 19.2065 59.0098 19.4269V13.6883V13.6817ZM58.401 23.1413C59.5238 22.7071 60.6196 22.2394 61.7492 21.8453C64.8134 20.7831 67.8775 19.7209 70.962 18.7121C74.1614 17.6633 77.4488 17.2491 80.8038 17.6299C81.7643 17.7367 82.7113 18.0507 83.6244 18.3848C84.5646 18.7255 84.9975 19.4804 84.9975 20.4891C84.9975 21.725 84.6323 22.8207 83.9356 23.8495C82.8465 25.4595 81.169 26.368 79.5998 27.3902C79.2616 27.6106 78.7272 27.6106 78.2808 27.5973C71.8548 27.4703 65.4289 27.3233 58.9962 27.163C58.6445 27.1563 58.2995 27.0027 57.8937 26.9092C58.0628 25.6265 58.2251 24.4507 58.401 23.1346V23.1413ZM57.4743 30.4365C57.7043 30.3764 57.9884 30.2361 58.2657 30.2428C64.5225 30.3764 70.7726 30.53 77.0294 30.677C77.1309 30.844 77.2323 31.0043 77.3338 31.1714C77.0767 31.3116 76.7926 31.4252 76.5627 31.6056C72.1322 34.9592 67.7017 38.3129 63.2982 41.6932C62.5406 42.2744 61.7966 42.5817 60.809 42.4682C59.6118 42.3279 58.401 42.3613 57.197 42.2878C56.7641 42.2611 56.3379 42.1475 55.9321 42.0807C55.8306 40.3972 56.7438 33.5697 57.4878 30.4432L57.4743 30.4365ZM45.0418 18.3246C45.1568 17.1555 45.5018 15.9731 46.6652 15.1046C46.8817 15.3986 47.1455 15.6524 47.274 15.9597C47.8692 17.3693 47.8625 18.8658 47.8692 20.3555C47.8692 21.0236 47.8016 21.6983 47.876 22.3597C47.991 23.3551 48.6539 23.9363 49.4859 23.8962C50.2502 23.8561 50.7102 23.3685 50.8996 22.4265C51.1972 20.9701 51.4542 19.5004 51.833 18.0708C52.178 16.7614 52.8612 15.599 53.8014 14.5969C54.1261 14.2562 54.4913 13.9956 54.9851 14.1092C55.5736 14.2495 55.8374 14.6904 55.8847 15.2516C55.9253 15.766 55.9388 16.2937 55.9118 16.8082C55.8577 17.8503 55.8238 18.8925 55.6953 19.928C55.4112 22.2127 55.073 24.4841 54.7484 26.8691C52.4553 27.163 46.8073 27.0628 44.9471 26.7087C44.866 26.1676 44.6833 25.5864 44.6969 25.0119C44.7645 22.7806 44.8254 20.5493 45.0418 18.3313V18.3246ZM43.6281 35.8411C43.8378 33.9505 43.7905 31.9864 44.6225 30.2494C46.2594 29.9421 51.9142 30.029 54.2005 30.4231C53.639 34.2979 53.0911 38.0323 52.5433 41.8202C50.8996 42.2945 49.3371 41.8469 47.7881 41.8469C46.2188 41.8469 44.6427 41.8736 42.972 41.6197C42.9247 39.5889 43.4252 37.725 43.6349 35.8411H43.6281ZM39.4885 13.2942C40.4287 13.7685 41.3351 14.3163 42.2482 14.8374C42.37 14.9042 42.4444 15.0512 42.5932 15.2182C42.2753 16.6077 41.9506 18.0374 41.6395 19.4136C41.4027 19.4937 41.2607 19.5873 41.1322 19.5739C36.0185 19.0729 30.898 18.6186 25.7979 18.0441C22.9434 17.7234 20.1295 17.1355 17.3833 16.2937C15.5705 15.7393 13.8321 15.0311 12.2088 14.0558C9.91571 12.6862 10.1457 10.8959 12.2088 9.49962C13.2166 8.81152 14.3733 8.47081 15.5705 8.21695C18.0394 7.69587 20.5219 7.72927 23.0178 7.97645C28.9026 8.57102 34.2936 10.662 39.502 13.2942H39.4885Z" fill="#FFFDFD"/>
</svg>
