<svg width="23" height="22" viewBox="0 0 23 22" fill="none" xmlns="http://www.w3.org/2000/svg">
<rect x="0.5" width="22" height="22" rx="11" fill="#1C1C1E"/>
<path d="M5.04764 14.3999C4.6415 14.1004 4.32971 13.8296 4.11228 13.5876C3.8969 13.3455 3.74818 13.122 3.66613 12.9168C3.58613 12.7097 3.54613 12.5107 3.54613 12.3199C3.54613 12.0676 3.6169 11.8635 3.75844 11.7076C3.90203 11.5517 4.08664 11.4738 4.31227 11.4738C4.6015 11.4738 4.86098 11.6194 5.09072 11.9107C5.31431 11.6194 5.56969 11.4738 5.85686 11.4738C6.0825 11.4738 6.26608 11.5517 6.40762 11.7076C6.55121 11.8635 6.623 12.0676 6.623 12.3199C6.623 12.4738 6.59531 12.6286 6.53992 12.7845C6.48659 12.9384 6.39839 13.0994 6.27531 13.2676C6.15429 13.4337 5.99224 13.6102 5.78917 13.7968C5.58815 13.9835 5.34097 14.1845 5.04764 14.3999ZM5.29687 14.1137L5.28149 13.886C5.58302 13.8614 5.86301 13.7907 6.12147 13.6737C6.37993 13.5568 6.60659 13.4061 6.80146 13.2214C6.99633 13.0348 7.14812 12.8255 7.25683 12.5938C7.36555 12.3599 7.41991 12.1138 7.41991 11.8553C7.41991 11.6215 7.39427 11.4184 7.34299 11.2461C7.29171 11.0738 7.20555 10.922 7.08453 10.7907L7.29683 10.7138C7.25786 10.8553 7.17889 10.9681 7.05991 11.0522C6.94094 11.1364 6.80248 11.1784 6.64454 11.1784C6.44352 11.1784 6.28557 11.121 6.1707 11.0061C6.05788 10.8912 6.00147 10.7292 6.00147 10.52C6.00147 10.3887 6.01173 10.2656 6.03224 10.1507C6.05275 10.0359 6.07327 9.91484 6.09378 9.78766C6.11429 9.66048 6.12455 9.51382 6.12455 9.34767C6.12455 9.13434 6.07224 8.94357 5.96763 8.77537C5.86507 8.60717 5.72353 8.47486 5.54302 8.37845C5.36251 8.27999 5.15636 8.23076 4.92457 8.23076C4.87124 8.23076 4.81278 8.23487 4.74919 8.24307C4.68765 8.24923 4.61996 8.25948 4.54612 8.27384L4.63842 8.08308C4.75534 8.21435 4.84252 8.35281 4.89996 8.49845C4.95944 8.64409 4.98918 8.79486 4.98918 8.95075C4.98918 9.12511 4.95842 9.28203 4.89688 9.42151C4.83739 9.561 4.76252 9.68817 4.67227 9.80304C4.58201 9.91791 4.48971 10.0266 4.39535 10.1292C4.27638 10.2584 4.18612 10.3733 4.12458 10.4738C4.06305 10.5723 4.01997 10.6779 3.99536 10.7907C3.97279 10.9015 3.95741 11.042 3.9492 11.2122C3.6887 11.0625 3.49896 10.8882 3.37998 10.6892C3.26306 10.4902 3.2046 10.2594 3.2046 9.99689C3.2046 9.87996 3.21588 9.77125 3.23845 9.67074L3.37998 9.75997C3.18512 9.93843 3.03025 10.1815 2.91538 10.4892C2.80256 10.7948 2.74615 11.1189 2.74615 11.4615C2.74615 11.9148 2.82922 12.3138 2.99538 12.6584C3.16153 13.0009 3.40255 13.2768 3.71844 13.4861C4.03433 13.6953 4.41484 13.8266 4.85996 13.8799L4.83842 14.1076C4.34817 14.044 3.92869 13.8973 3.57998 13.6676C3.23127 13.4378 2.96358 13.1363 2.77692 12.763C2.59231 12.3897 2.5 11.9558 2.5 11.4615C2.5 11.1558 2.5441 10.8646 2.63231 10.5876C2.72051 10.3087 2.84051 10.0646 2.9923 9.85535C3.14614 9.64612 3.32152 9.49331 3.51844 9.3969C3.49588 9.48715 3.47844 9.58048 3.46614 9.67689C3.45383 9.77125 3.44767 9.86561 3.44767 9.95996C3.44767 10.1835 3.48665 10.3723 3.5646 10.5261C3.64459 10.6779 3.76767 10.802 3.93382 10.8984L3.72767 10.9753C3.73793 10.7907 3.77895 10.6246 3.85074 10.4769C3.92254 10.3292 4.04254 10.162 4.21074 9.97535C4.34407 9.82971 4.46612 9.67587 4.57688 9.51382C4.68765 9.35177 4.74304 9.16511 4.74304 8.95383C4.74304 8.67486 4.61176 8.39179 4.3492 8.10461C4.42304 8.07179 4.51227 8.04615 4.61688 8.02769C4.72355 8.00923 4.82714 8 4.92765 8C5.20046 8 5.44559 8.05949 5.66302 8.17846C5.88045 8.29538 6.05275 8.45538 6.17993 8.65845C6.30711 8.86152 6.3707 9.09126 6.3707 9.34767C6.3707 9.51382 6.36044 9.66458 6.33993 9.79997C6.31942 9.9333 6.2989 10.0584 6.27839 10.1753C6.25788 10.2902 6.24762 10.4051 6.24762 10.52C6.24762 10.6656 6.27942 10.7733 6.343 10.843C6.40659 10.9128 6.5071 10.9476 6.64454 10.9476C6.75941 10.9476 6.85787 10.9158 6.93992 10.8523C7.02402 10.7866 7.09786 10.6779 7.16145 10.5261C7.34606 10.723 7.47632 10.921 7.55221 11.1199C7.63016 11.3169 7.66913 11.562 7.66913 11.8553C7.66913 12.1404 7.6076 12.4122 7.48452 12.6707C7.36145 12.9291 7.19119 13.162 6.97376 13.3691C6.75633 13.5763 6.50403 13.7445 6.21685 13.8737C5.93173 14.005 5.62507 14.085 5.29687 14.1137Z" fill="white"/>
<path d="M17.2775 13.4428V9.7998H17.9042V13.4428H17.2775ZM15.6816 11.9137V11.3205H19.5001V11.9137H15.6816Z" fill="white"/>
<path d="M12.9382 14.0444L11.3423 9.83325H12.0776L13.3476 13.3676L14.626 9.83325H15.3445L13.7486 14.0444H12.9382Z" fill="white"/>
<path d="M10.3597 14.0442C10.109 14.0442 9.8918 14.0052 9.70798 13.9272C9.52416 13.8492 9.38212 13.7183 9.28186 13.5345C9.18716 13.3451 9.13982 13.0917 9.13982 12.7742V10.4263H8.40454V9.83308H9.13982L9.23173 8.81372H9.84167V9.83308H11.0616V10.4263H9.84167V12.7742C9.84167 13.036 9.89459 13.2142 10.0004 13.3089C10.1063 13.398 10.2929 13.4426 10.5602 13.4426H11.0114V14.0442H10.3597Z" fill="white"/>
</svg>
