<svg width="16" height="18" viewBox="0 0 16 18" fill="none" xmlns="http://www.w3.org/2000/svg">
<path d="M7.66539 18C6.52308 17.1577 5.64615 16.3962 5.03462 15.7154C4.42885 15.0346 4.01058 14.4058 3.77981 13.8288C3.55481 13.2462 3.44231 12.6865 3.44231 12.15C3.44231 11.4404 3.64135 10.8663 4.03942 10.4279C4.44327 9.98942 4.9625 9.77019 5.59712 9.77019C6.41058 9.77019 7.14039 10.1798 7.78654 10.999C8.41539 10.1798 9.13365 9.77019 9.94135 9.77019C10.576 9.77019 11.0923 9.98942 11.4904 10.4279C11.8942 10.8663 12.0962 11.4404 12.0962 12.15C12.0962 12.5827 12.0183 13.0183 11.8625 13.4567C11.7125 13.8894 11.4644 14.3423 11.1183 14.8154C10.7779 15.2827 10.3221 15.7788 9.75096 16.3038C9.18558 16.8288 8.49039 17.3942 7.66539 18ZM8.36635 17.1952L8.32308 16.5548C9.17115 16.4856 9.95865 16.2865 10.6856 15.9577C11.4125 15.6288 12.05 15.2048 12.5981 14.6856C13.1462 14.1606 13.5731 13.5721 13.8788 12.9202C14.1846 12.2625 14.3375 11.5702 14.3375 10.8433C14.3375 10.1856 14.2654 9.61442 14.1212 9.12981C13.9769 8.64519 13.7346 8.21827 13.3942 7.84904L13.9913 7.63269C13.8817 8.03077 13.6596 8.34808 13.325 8.58461C12.9904 8.82115 12.601 8.93942 12.1567 8.93942C11.5913 8.93942 11.1471 8.77789 10.824 8.45481C10.5067 8.13173 10.3481 7.67596 10.3481 7.0875C10.3481 6.71827 10.3769 6.37212 10.4346 6.04904C10.4923 5.72596 10.55 5.38558 10.6077 5.02789C10.6654 4.67019 10.6942 4.25769 10.6942 3.79039C10.6942 3.19038 10.5471 2.65385 10.2529 2.18077C9.96442 1.70769 9.56635 1.33558 9.05865 1.06442C8.55096 0.7875 7.97115 0.649038 7.31923 0.649038C7.16923 0.649038 7.00481 0.660577 6.82596 0.683654C6.65288 0.700962 6.4625 0.729808 6.25481 0.770192L6.51442 0.233654C6.84327 0.602885 7.08846 0.992308 7.25 1.40192C7.41731 1.81154 7.50096 2.23558 7.50096 2.67404C7.50096 3.16442 7.41442 3.60577 7.24135 3.99808C7.07404 4.39038 6.86346 4.74808 6.60962 5.07115C6.35577 5.39423 6.09615 5.7 5.83077 5.98846C5.49615 6.35192 5.24231 6.675 5.06923 6.95769C4.89615 7.23462 4.775 7.53173 4.70577 7.84904C4.64231 8.16058 4.59904 8.55577 4.57596 9.03462C3.84327 8.61346 3.30962 8.12308 2.975 7.56346C2.64615 7.00385 2.48173 6.35481 2.48173 5.61635C2.48173 5.2875 2.51346 4.98173 2.57692 4.69904L2.975 4.95C2.42692 5.45192 1.99135 6.13558 1.66827 7.00096C1.35096 7.86058 1.19231 8.77212 1.19231 9.73558C1.19231 11.0106 1.42596 12.1327 1.89327 13.1019C2.36058 14.0654 3.03846 14.8413 3.92692 15.4298C4.81538 16.0183 5.88558 16.3875 7.1375 16.5375L7.07692 17.1779C5.69808 16.999 4.51827 16.5865 3.5375 15.9404C2.55673 15.2942 1.80385 14.4462 1.27885 13.3962C0.759615 12.3462 0.5 11.126 0.5 9.73558C0.5 8.87596 0.624038 8.05673 0.872115 7.27788C1.12019 6.49327 1.45769 5.80673 1.88462 5.21827C2.31731 4.62981 2.81058 4.2 3.36442 3.92885C3.30096 4.18269 3.25192 4.44519 3.21731 4.71635C3.18269 4.98173 3.16538 5.24712 3.16538 5.5125C3.16538 6.14135 3.275 6.67212 3.49423 7.10481C3.71923 7.53173 4.06538 7.88077 4.53269 8.15192L3.95288 8.36827C3.98173 7.84904 4.09712 7.38173 4.29904 6.96635C4.50096 6.55096 4.83846 6.08077 5.31154 5.55577C5.68654 5.14615 6.02981 4.71346 6.34135 4.25769C6.65289 3.80192 6.80865 3.27692 6.80865 2.68269C6.80865 1.89808 6.43942 1.10192 5.70096 0.294231C5.90865 0.201923 6.15962 0.129808 6.45385 0.0778846C6.75385 0.0259615 7.04519 0 7.32789 0C8.09519 0 8.78462 0.167308 9.39616 0.501923C10.0077 0.830769 10.4923 1.28077 10.85 1.85192C11.2077 2.42308 11.3865 3.06923 11.3865 3.79039C11.3865 4.25769 11.3577 4.68173 11.3 5.0625C11.2423 5.4375 11.1846 5.78942 11.1269 6.11827C11.0692 6.44135 11.0404 6.76442 11.0404 7.0875C11.0404 7.49712 11.1298 7.8 11.3087 7.99615C11.4875 8.19231 11.7702 8.29039 12.1567 8.29039C12.4798 8.29039 12.7567 8.20096 12.9875 8.02212C13.224 7.8375 13.4317 7.53173 13.6106 7.10481C14.1298 7.65865 14.4962 8.21538 14.7096 8.775C14.9288 9.32885 15.0385 10.0183 15.0385 10.8433C15.0385 11.6452 14.8654 12.4096 14.5192 13.1365C14.1731 13.8635 13.6942 14.5183 13.0827 15.101C12.4712 15.6837 11.7615 16.1567 10.9538 16.5202C10.1519 16.8894 9.28942 17.1144 8.36635 17.1952Z" fill="white"/>
</svg>
