<svg width="97" height="36" viewBox="0 0 97 36" fill="none" xmlns="http://www.w3.org/2000/svg">
<path d="M14.7154 36C12.4308 34.3154 10.677 32.7923 9.45388 31.4308C8.24234 30.0692 7.4058 28.8115 6.94426 27.6577C6.49426 26.4923 6.26926 25.3731 6.26926 24.3C6.26926 22.8808 6.66734 21.7327 7.46349 20.8558C8.27118 19.9788 9.30964 19.5404 10.5789 19.5404C12.2058 19.5404 13.6654 20.3596 14.9577 21.9981C16.2154 20.3596 17.652 19.5404 19.2673 19.5404C20.5366 19.5404 21.5693 19.9788 22.3654 20.8558C23.1731 21.7327 23.577 22.8808 23.577 24.3C23.577 25.1654 23.4212 26.0365 23.1096 26.9135C22.8096 27.7788 22.3135 28.6846 21.6212 29.6308C20.9404 30.5654 20.0289 31.5577 18.8866 32.6077C17.7558 33.6577 16.3654 34.7885 14.7154 36ZM16.1173 34.3904L16.0308 33.1096C17.727 32.9712 19.302 32.5731 20.7558 31.9154C22.2096 31.2577 23.4846 30.4096 24.5808 29.3712C25.677 28.3212 26.5308 27.1442 27.1423 25.8404C27.7539 24.525 28.0596 23.1404 28.0596 21.6865C28.0596 20.3712 27.9154 19.2288 27.627 18.2596C27.3385 17.2904 26.8539 16.4365 26.1731 15.6981L27.3673 15.2654C27.1481 16.0615 26.7039 16.6962 26.0346 17.1692C25.3654 17.6423 24.5866 17.8788 23.6981 17.8788C22.5673 17.8788 21.6789 17.5558 21.0327 16.9096C20.3981 16.2635 20.0808 15.3519 20.0808 14.175C20.0808 13.4365 20.1385 12.7442 20.2539 12.0981C20.3693 11.4519 20.4846 10.7712 20.6 10.0558C20.7154 9.34039 20.7731 8.51539 20.7731 7.58077C20.7731 6.38077 20.4789 5.30769 19.8904 4.36154C19.3135 3.41539 18.5173 2.67115 17.502 2.12885C16.4866 1.575 15.327 1.29808 14.0231 1.29808C13.7231 1.29808 13.3943 1.32115 13.0366 1.36731C12.6904 1.40192 12.3096 1.45962 11.8943 1.54038L12.4135 0.467308C13.0712 1.20577 13.5616 1.98462 13.8846 2.80385C14.2193 3.62308 14.3866 4.47115 14.3866 5.34808C14.3866 6.32885 14.2135 7.21154 13.8673 7.99615C13.5327 8.78077 13.1116 9.49615 12.6039 10.1423C12.0962 10.7885 11.577 11.4 11.0462 11.9769C10.377 12.7038 9.86926 13.35 9.52311 13.9154C9.17695 14.4692 8.93464 15.0635 8.79618 15.6981C8.66926 16.3212 8.58272 17.1115 8.53657 18.0692C7.07118 17.2269 6.00387 16.2462 5.33464 15.1269C4.67695 14.0077 4.34811 12.7096 4.34811 11.2327C4.34811 10.575 4.41157 9.96346 4.53849 9.39808L5.33464 9.9C4.23849 10.9038 3.36734 12.2712 2.72118 14.0019C2.08657 15.7212 1.76926 17.5442 1.76926 19.4712C1.76926 22.0212 2.23657 24.2654 3.17118 26.2038C4.1058 28.1308 5.46157 29.6827 7.23849 30.8596C9.01541 32.0365 11.1558 32.775 13.6596 33.075L13.5385 34.3558C10.7808 33.9981 8.42118 33.1731 6.45964 31.8808C4.49811 30.5885 2.99234 28.8923 1.94234 26.7923C0.903874 24.6923 0.384644 22.2519 0.384644 19.4712C0.384644 17.7519 0.63272 16.1135 1.12887 14.5558C1.62503 12.9865 2.30003 11.6135 3.15387 10.4365C4.01926 9.25962 5.0058 8.4 6.11349 7.85769C5.98657 8.36539 5.88849 8.89038 5.81926 9.43269C5.75003 9.96346 5.71541 10.4942 5.71541 11.025C5.71541 12.2827 5.93464 13.3442 6.37311 14.2096C6.82311 15.0635 7.51541 15.7615 8.45003 16.3038L7.29041 16.7365C7.34811 15.6981 7.57888 14.7635 7.98272 13.9327C8.38657 13.1019 9.06157 12.1615 10.0077 11.1115C10.7577 10.2923 11.4443 9.42692 12.0673 8.51538C12.6904 7.60385 13.002 6.55385 13.002 5.36539C13.002 3.79615 12.2635 2.20385 10.7866 0.588462C11.202 0.403846 11.7039 0.259615 12.2923 0.155769C12.8923 0.0519231 13.475 0 14.0404 0C15.575 0 16.9539 0.334615 18.177 1.00385C19.4 1.66154 20.3693 2.56154 21.0846 3.70385C21.8 4.84615 22.1577 6.13846 22.1577 7.58077C22.1577 8.51539 22.1 9.36346 21.9846 10.125C21.8693 10.875 21.7539 11.5788 21.6385 12.2365C21.5231 12.8827 21.4654 13.5288 21.4654 14.175C21.4654 14.9942 21.6443 15.6 22.002 15.9923C22.3596 16.3846 22.925 16.5808 23.6981 16.5808C24.3443 16.5808 24.8981 16.4019 25.3596 16.0442C25.8327 15.675 26.2481 15.0635 26.6058 14.2096C27.6443 15.3173 28.377 16.4308 28.8039 17.55C29.2423 18.6577 29.4616 20.0365 29.4616 21.6865C29.4616 23.2904 29.1154 24.8192 28.4231 26.2731C27.7308 27.7269 26.7731 29.0365 25.55 30.2019C24.327 31.3673 22.9077 32.3135 21.2923 33.0404C19.6885 33.7788 17.9635 34.2289 16.1173 34.3904Z" fill="white"/>
<path d="M83.5095 30.616V10.124H87.0345V30.616H83.5095ZM74.5325 22.015V18.678H96.0115V22.015H74.5325Z" fill="white"/>
<path d="M59.1003 34L50.1233 10.312H54.2593L61.4033 30.193L68.5943 10.312H72.6363L63.6593 34H59.1003Z" fill="white"/>
<path d="M44.596 34C43.186 34 41.964 33.7807 40.93 33.342C39.896 32.9033 39.097 32.167 38.533 31.133C38.0004 30.0677 37.734 28.642 37.734 26.856V13.649H33.598V10.312H37.734L38.251 4.578H41.682V10.312H48.544V13.649H41.682V26.856C41.682 28.3287 41.9797 29.3313 42.575 29.864C43.1704 30.3653 44.22 30.616 45.724 30.616H48.262V34H44.596Z" fill="white"/>
</svg>
